<svg preserveAspectRatio="none" overflow="visible" style="display: block;" width="16" height="16" viewBox="0 0 16 16" fill="none" xmlns="http://www.w3.org/2000/svg">
<g id="scroll-text">
<path id="Vector" d="M10.0002 8H6.66656M10.0002 5.33333H6.66656M3.99968 5.33333H1.99952C1.82269 5.33333 1.65311 5.2631 1.52808 5.13807C1.40304 5.01305 1.3328 4.84348 1.3328 4.66667V3.33333C1.3328 2.97971 1.47329 2.64057 1.72336 2.39052C1.97342 2.14048 2.31259 2 2.66624 2H11.3336C11.6873 2 12.0264 2.14048 12.2765 2.39052C12.5266 2.64057 12.667 2.97971 12.667 3.33333V11.3333M2.66624 2C3.01989 2 3.35906 2.14048 3.60912 2.39052C3.85919 2.64057 3.99968 2.97971 3.99968 3.33333V12.6667C3.99968 13.0203 4.14017 13.3594 4.39024 13.6095C4.6403 13.8595 4.97947 14 5.33312 14M5.33312 14H13.3338C13.6874 14 14.0266 13.8595 14.2766 13.6095C14.5267 13.3594 14.6672 13.0203 14.6672 12.6667V12C14.6672 11.8232 14.597 11.6536 14.4719 11.5286C14.3469 11.4036 14.1773 11.3333 14.0005 11.3333H7.33328C7.15646 11.3333 6.98687 11.4036 6.86184 11.5286C6.7368 11.6536 6.66656 11.8232 6.66656 12V12.6667C6.66656 13.0203 6.52607 13.3594 6.276 13.6095C6.02594 13.8595 5.68677 14 5.33312 14Z" stroke="#697583" stroke-linecap="round"/>
</g>
</svg>
